<?xml version="1.0" encoding="utf-8"?>
<svg xmlns="http://www.w3.org/2000/svg" version="1.1" viewBox="0 0 24 28">
	<title>The astronomical symbol for the Zodiac sign Leo.</title>
	<path d="m6.9577 20.464q1.3953-0.5395 1.8604-1.5813 0.46509-1.0604 0.46509-1.7859 0-0.65112-0.26045-1.3022-0.5395-1.3953-1.5999-1.8604-1.0418-0.46509-1.7673-0.46509-0.66973 0-1.3209 0.26045-1.3953 0.5581-1.8604 1.5999-0.44648 1.0232-0.44648 1.7487 0 0.65112 0.26045 1.3208 0.5581 1.4139 1.5813 1.879 1.0418 0.44648 1.7673 0.44648 0.65112 0 1.3208-0.26045zm0.22324-13.729q0-2.9952 2.065-4.8555 2.0836-1.879 5.4322-1.879 3.1998 0 5.2276 2.065 2.0278 2.0464 2.0278 5.3206 0 3.4789-2.6975 8.1483-2.6975 4.6695-2.6975 8.0181 0.07441 2.3068 2.5673 2.3626 1.3208 0 3.1812-1.6371l1.2092 1.3395q-2.3626 2.2138-4.4276 2.2138-1.8417 0-3.1812-1.1162-1.3395-1.1348-1.3395-3.1998 0-3.7021 2.6603-8.1669 2.6789-4.4834 2.6789-8.0925 0-2.4929-1.5255-4.0184-1.5255-1.5441-3.9812-1.5441-2.3626 0-3.7579 1.4511-1.3953 1.4325-1.3953 3.8323 0 1.1162 0.42788 2.4743 0.42788 1.3395 0.89297 2.4929 0.68833 1.8231 0.76274 3.0138 0.09302 1.1906 0.09302 1.5069 0 1.6185-0.59531 2.8835-0.94878 2.1394-3.1068 2.9766-1.0418 0.40928-2.0836 0.40928-1.1162 0-2.7347-0.68833-1.5999-0.70693-2.4743-2.9394-0.40928-1.0046-0.40928-2.0464 0-1.1162 0.5023-2.2324 0.94878-2.1208 3.1254-2.9766 1.0232-0.39067 2.0464-0.39067 1.4139 0 2.7905 0.76274 0.14883 0 0.14883-0.24184 0-0.48369-0.72554-2.1952-0.70693-1.7115-0.70693-3.051z"/>
</svg>
