<?xml version="1.0" encoding="utf-8"?>
<svg xmlns="http://www.w3.org/2000/svg" version="1.1" viewBox="0 0 30.677 27.868">
	<title>The astronomical symbol for the Zodiac sign Aries.</title>
	<path d="m14.157 27.868c0-7.4414-0.8868-13.556-2.6603-18.343-1.7735-4.7997-3.7083-7.1996-5.8043-7.1996-1.5999 0-2.5053 0.61392-2.7161 1.8418-0.21084 1.2154-0.31626 2.034-0.31626 2.4557 0 1.5875 0.5209 3.175 1.5627 4.7624h-2.4929c-1.1534-1.6371-1.7301-3.454-1.7301-5.4508 0-1.6371 0.50229-3.0324 1.5069-4.1858 1.017-1.1658 2.4308-1.7487 4.2416-1.7487 4.6137 0 7.7329 4.7935 9.3576 14.38 0.0992 0.6077 0.1798 1.1596 0.2418 1.6557 0.0496-0.4961 0.124-1.048 0.2233-1.6557 1.6371-9.587 4.7563-14.38 9.3575-14.38 1.8232 0 3.237 0.58291 4.2416 1.7487 1.0046 1.1534 1.5069 2.5487 1.5069 4.1858 0 1.9968-0.5767 3.8137-1.7301 5.4508h-2.4929c1.0542-1.5875 1.5813-3.1812 1.5813-4.7811 0-0.42167-0.1054-1.2402-0.3163-2.4557-0.2108-1.2154-1.1224-1.8231-2.7347-1.8231-2.0836 0-4.0121 2.3998-5.7857 7.1996-1.7735 4.7873-2.6603 10.902-2.6603 18.343z"/>
</svg>
