<?xml version="1.0" encoding="utf-8"?>
<svg xmlns="http://www.w3.org/2000/svg" version="1.1" viewBox="0 0 28 28">
	<title>The astronomical symbol for the Zodiac sign Taurus.</title>
	<path d="m13.653 11.83c-1.8232 0-3.3734 0.6449-4.6508 1.9347-1.2774 1.2775-1.9161 2.8277-1.9161 4.6508 0 1.8232 0.63871 3.3734 1.9161 4.6508 0.85162 0.8516 2.4018 1.4903 4.6508 1.9162 1.8231 0 3.3734-0.6388 4.6507-1.9162 1.2899-1.2774 1.9348-2.8277 1.9348-4.6508s-0.6387-3.3734-1.9162-4.6508c-1.265-1.2898-2.8214-1.9347-4.6693-1.9347zm0-2.7905c1.6246-0.06202 2.9083-0.47129 3.8509-1.2278 1.0666-0.81854 1.8976-1.7859 2.4929-2.9022 0.6077-1.1162 1.4076-2.2138 2.3998-3.2927 1.0046-1.079 2.654-1.6185 4.9484-1.6185v2.0092c-1.5254 0-2.8091 0.96739-3.8509 2.9022-1.0294 1.9348-2.3565 3.5718-3.9812 4.9111-0.2604 0.23562-0.5333 0.44642-0.8185 0.63252 0.5705 0.3721 1.1224 0.8123 1.6557 1.3208 1.8107 1.848 2.7161 4.0742 2.7161 6.6785 0 2.5921-0.9177 4.8059-2.7532 6.6415-1.8231 1.8232-4.0431 2.7347-6.66 2.7347-2.5796 0-4.7872-0.9115-6.6227-2.7347-1.8355-1.8354-2.7532-4.0493-2.7532-6.6415 0-2.6045 0.91774-4.8307 2.7532-6.6785 0.50848-0.5209 1.0604-0.9673 1.6557-1.3394-0.29765-0.1736-0.5767-0.3783-0.83715-0.61392-1.5999-1.3394-2.9331-2.9765-3.9997-4.9111-1.0542-1.9348-2.3378-2.9022-3.851-2.9022v-2.0092c2.2944 0 4.0184 0.5395 5.1717 1.6185 1.1534 1.079 1.9534 2.1766 2.3998 3.2927 0.44647 1.1162 1.1968 2.0836 2.251 2.9022 0.95502 0.75654 2.2323 1.1658 3.8322 1.2278z"/>
</svg>
